<svg width="16" height="20" viewBox="0 0 16 20" fill="none" xmlns="http://www.w3.org/2000/svg">
<path fill-rule="evenodd" clip-rule="evenodd" d="M11.4915 0C11.6964 1.1 11.1841 2.2 10.5693 3C9.95452 3.8 8.8274 4.5 7.70028 4.4C7.49535 3.3 8.00768 2.3 8.62247 1.5C9.33973 0.7 10.4669 0.1 11.4915 0ZM14.7704 17.4C15.2827 16.6 15.5901 16.1 16 15.2C12.8236 14 12.3112 9.6 15.4877 8C14.5655 6.8 13.2334 6.2 11.9014 6.2C10.9792 6.2 10.3644 6.4 9.74959 6.6C9.23727 6.8 8.8274 6.9 8.31507 6.9C7.70028 6.9 7.29042 6.7 6.67562 6.5C6.06083 6.3 5.44604 6.1 4.72878 6.1C3.29426 6.1 1.75727 6.9 0.83508 8.4C-0.496974 10.4 -0.292042 14.3 1.85974 17.5C2.78193 18.7 3.80658 20 5.13864 20C5.75343 20 6.06083 19.8 6.47069 19.7C6.98302 19.5 7.49535 19.3 8.31507 19.3C9.23727 19.3 9.64713 19.5 10.1595 19.7C10.5693 19.9 10.8767 20 11.4915 20C12.926 20 13.9507 18.5 14.7704 17.4Z" fill="white"/>
</svg>
