<svg width="48" height="48" viewBox="0 0 48 48" fill="none" xmlns="http://www.w3.org/2000/svg">
<path d="M0 24C0 10.7452 10.7452 0 24 0C37.2548 0 48 10.7452 48 24C48 37.2548 37.2548 48 24 48C10.7452 48 0 37.2548 0 24Z" fill="#08050D"/>
<path d="M28.44 20.9C32.04 21.21 33.51 23.06 33.51 27.11V27.24C33.51 31.71 31.72 33.5 27.25 33.5H20.74C16.27 33.5 14.48 31.71 14.48 27.24V27.11C14.48 23.09 15.93 21.24 19.47 20.91" stroke="white" stroke-width="1.5" stroke-linecap="round" stroke-linejoin="round"/>
<path d="M24 14V26.88" stroke="white" stroke-width="1.5" stroke-linecap="round" stroke-linejoin="round"/>
<path d="M27.3499 24.65L23.9999 28L20.6499 24.65" stroke="white" stroke-width="1.5" stroke-linecap="round" stroke-linejoin="round"/>
</svg>
