<svg width="60" height="60" viewBox="0 0 60 60" fill="none" xmlns="http://www.w3.org/2000/svg">
<rect width="60" height="60" rx="30" fill="white"/>
<path d="M30.8774 20C30.82 20.0006 30.7633 20.0125 30.7105 20.035C30.6577 20.0575 30.6098 20.0902 30.5696 20.1312C30.5295 20.1723 30.4978 20.2208 30.4764 20.2741C30.4551 20.3274 30.4444 20.3843 30.4451 20.4417C30.4831 23.653 30.6707 25.9143 31.9851 27.4282C33.2995 28.942 35.6025 29.5142 39.5582 29.5574C39.6192 29.5581 39.6798 29.546 39.7359 29.5219C39.792 29.4977 39.8424 29.4621 39.8839 29.4173C39.9253 29.3724 39.9569 29.3194 39.9766 29.2615C39.9963 29.2037 40.0036 29.1424 39.9982 29.0816C39.5614 24.2718 35.7306 20.4398 30.9209 20.0017C30.9064 20.0004 30.8919 19.9999 30.8774 20ZM29.0833 20.0026C29.0722 20.0027 29.0611 20.0033 29.05 20.0043C24.2539 20.4552 20.4371 24.2814 20.0018 29.0816C19.9963 29.1424 20.0036 29.2037 20.0233 29.2615C20.043 29.3194 20.0746 29.3724 20.1161 29.4173C20.1575 29.4621 20.2079 29.4977 20.264 29.5219C20.3202 29.546 20.3807 29.5581 20.4418 29.5574C24.3858 29.512 26.6827 28.9387 27.9926 27.4247C29.3025 25.9108 29.4885 23.6515 29.5267 20.4443C29.5274 20.386 29.5164 20.3281 29.4943 20.2741C29.4722 20.22 29.4396 20.171 29.3982 20.1298C29.3569 20.0886 29.3077 20.0562 29.2536 20.0343C29.1995 20.0125 29.1416 20.0017 29.0833 20.0026ZM31.3566 20.9653C35.3313 21.5595 38.4493 24.6805 39.0371 28.6569C35.5445 28.5643 33.6402 28.0031 32.6443 26.856C31.665 25.7281 31.4196 23.7854 31.3566 20.9653ZM28.616 20.9687C28.5529 23.7847 28.3074 25.7258 27.3318 26.8534C26.3396 28.0002 24.4428 28.5612 20.9628 28.6561C21.5496 24.6892 24.6546 21.573 28.616 20.9687ZM20.4418 30.4426C20.3807 30.4418 20.3202 30.4539 20.264 30.4781C20.2079 30.5022 20.1575 30.5379 20.1161 30.5827C20.0746 30.6276 20.043 30.6806 20.0233 30.7384C20.0036 30.7962 19.9963 30.8575 20.0018 30.9184C20.4376 35.719 24.2538 39.5453 29.05 39.9957C29.1109 40.0013 29.1723 39.994 29.2302 39.9744C29.2882 39.9548 29.3413 39.9232 29.3863 39.8817C29.4312 39.8402 29.4669 39.7898 29.4911 39.7336C29.5153 39.6774 29.5274 39.6168 29.5267 39.5557C29.4885 36.3484 29.3025 34.0892 27.9926 32.5752C26.6828 31.0612 24.3858 30.4878 20.4418 30.4426ZM39.5582 30.4426C35.6025 30.4858 33.2994 31.0579 31.9851 32.5718C30.6708 34.0857 30.4833 36.347 30.4451 39.5582C30.4444 39.6193 30.4565 39.6798 30.4806 39.736C30.5048 39.7921 30.5404 39.8425 30.5852 39.8839C30.6301 39.9254 30.6831 39.957 30.7409 39.9767C30.7988 39.9964 30.8601 40.0037 30.9209 39.9982C35.7302 39.5602 39.561 35.729 39.9982 30.9192C40.0038 30.8583 39.9965 30.7969 39.9769 30.739C39.9573 30.6811 39.9257 30.6279 39.8842 30.583C39.8427 30.5381 39.7923 30.5023 39.7361 30.4781C39.6799 30.4539 39.6193 30.4418 39.5582 30.4426ZM39.0371 31.343C38.4489 35.3195 35.3309 38.4405 31.3566 39.0347C31.4198 36.2145 31.6651 34.2719 32.6443 33.144C33.6402 31.9968 35.5445 31.4357 39.0371 31.343ZM20.9628 31.3439C24.4428 31.4385 26.3395 31.9997 27.3318 33.1466C28.3074 34.2742 28.5529 36.2153 28.616 39.0312C24.6546 38.4274 21.5499 35.3112 20.9628 31.3439Z" fill="#08050D" stroke="#08050D" stroke-width="0.5"/>
</svg>
