<svg width="18" height="18" viewBox="0 0 18 18" fill="none" xmlns="http://www.w3.org/2000/svg">
<path d="M17.8163 7.38H9.18367V10.71H14.2347C14.1429 11.52 13.5918 12.78 12.398 13.59C11.6633 14.13 10.5612 14.49 9.18367 14.49C6.79592 14.49 4.68367 12.96 3.94898 10.71C3.76531 10.17 3.67347 9.54 3.67347 8.91C3.67347 8.28 3.76531 7.65 3.94898 7.11C4.04082 6.93 4.04082 6.75 4.13265 6.66C4.95918 4.77 6.88776 3.42 9.18367 3.42C10.9286 3.42 12.0306 4.14 12.7653 4.77L15.3367 2.25C13.7755 0.9 11.6633 0 9.18367 0C5.60204 0 2.47959 1.98 1.0102 4.95C0.367347 6.21 0 7.56 0 9C0 10.44 0.367347 11.79 1.0102 13.05C2.47959 16.02 5.60204 18 9.18367 18C11.6633 18 13.7755 17.19 15.2449 15.84C16.9898 14.31 18 11.97 18 9.18C18 8.46 17.9082 7.92 17.8163 7.38Z" fill="white"/>
</svg>
