<svg width="48" height="48" viewBox="0 0 48 48" fill="none" xmlns="http://www.w3.org/2000/svg">
<rect width="48" height="48" rx="24" fill="#4FC661"/>
<path d="M14 21V18.5C14 16.01 16.01 14 18.5 14H21" stroke="white" stroke-width="1.5" stroke-linecap="round" stroke-linejoin="round"/>
<path d="M27 14H29.5C31.99 14 34 16.01 34 18.5V21" stroke="white" stroke-width="1.5" stroke-linecap="round" stroke-linejoin="round"/>
<path d="M34 28V29.5C34 31.99 31.99 34 29.5 34H28" stroke="white" stroke-width="1.5" stroke-linecap="round" stroke-linejoin="round"/>
<path d="M21 34H18.5C16.01 34 14 31.99 14 29.5V27" stroke="white" stroke-width="1.5" stroke-linecap="round" stroke-linejoin="round"/>
<path d="M22.5 19V21C22.5 22 22 22.5 21 22.5H19C18 22.5 17.5 22 17.5 21V19C17.5 18 18 17.5 19 17.5H21C22 17.5 22.5 18 22.5 19Z" stroke="white" stroke-width="1.5" stroke-linecap="round" stroke-linejoin="round"/>
<path d="M30.5 19V21C30.5 22 30 22.5 29 22.5H27C26 22.5 25.5 22 25.5 21V19C25.5 18 26 17.5 27 17.5H29C30 17.5 30.5 18 30.5 19Z" stroke="white" stroke-width="1.5" stroke-linecap="round" stroke-linejoin="round"/>
<path d="M22.5 27V29C22.5 30 22 30.5 21 30.5H19C18 30.5 17.5 30 17.5 29V27C17.5 26 18 25.5 19 25.5H21C22 25.5 22.5 26 22.5 27Z" stroke="white" stroke-width="1.5" stroke-linecap="round" stroke-linejoin="round"/>
<path d="M30.5 27V29C30.5 30 30 30.5 29 30.5H27C26 30.5 25.5 30 25.5 29V27C25.5 26 26 25.5 27 25.5H29C30 25.5 30.5 26 30.5 27Z" stroke="white" stroke-width="1.5" stroke-linecap="round" stroke-linejoin="round"/>
</svg>
