<svg width="60" height="60" viewBox="0 0 60 60" fill="none" xmlns="http://www.w3.org/2000/svg">
<rect width="60" height="60" rx="30" fill="white"/>
<path d="M39.702 20.0015C39.4583 20.0122 39.2211 20.08 39.0072 20.1656C38.7955 20.2506 37.5765 20.7707 35.7765 21.54C33.9764 22.3093 31.6365 23.3111 29.317 24.3045C24.6779 26.2912 20.1193 28.2461 20.1193 28.2461L20.1525 28.2334C20.1525 28.2334 19.8774 28.3253 19.5984 28.5196C19.4589 28.6167 19.3089 28.7421 19.186 28.925C19.0632 29.1078 18.9734 29.3669 19.0072 29.641C19.1261 30.6037 20.1242 30.8767 20.1242 30.8767L20.1281 30.8787L24.5823 32.4026C24.6959 32.7813 25.9333 36.9097 26.2055 37.784C26.3558 38.2674 26.4965 38.5462 26.6433 38.7364C26.7167 38.8316 26.7937 38.9053 26.8788 38.9592C26.9126 38.9806 26.9482 38.9966 26.9834 39.0109H26.9853C26.9896 39.0128 26.9937 39.013 26.998 39.0148L26.9863 39.0119C26.9945 39.0152 27.0025 39.0208 27.0107 39.0236C27.0266 39.0292 27.0363 39.029 27.0566 39.0334C27.5668 39.2115 27.9889 38.881 27.9889 38.881L28.0065 38.8673L30.7428 36.3305L35.1833 39.7914L35.239 39.8168C36.0163 40.1618 36.7192 39.9694 37.1084 39.6527C37.4977 39.3361 37.6508 38.9279 37.6508 38.9279L37.6674 38.8849L40.9304 21.8848C41.0139 21.5045 41.0257 21.1758 40.947 20.8787C40.8683 20.5816 40.6769 20.3234 40.4369 20.1802C40.1968 20.0371 39.9457 19.9908 39.702 20.0015ZM39.7284 21.0184C39.8274 21.0138 39.9007 21.0251 39.9238 21.0389C39.947 21.0527 39.9573 21.0509 39.9795 21.1346C40.0017 21.2184 40.0138 21.3948 39.9532 21.6709L39.9512 21.6768L36.7068 38.5782C36.6991 38.5952 36.6315 38.7516 36.4771 38.8771C36.3197 39.0052 36.1445 39.1052 35.6797 38.9103L30.8239 35.125L30.6871 35.0176L30.6841 35.0205L29.232 33.9313L37.3928 24.3338C37.4555 24.2602 37.4956 24.1701 37.5081 24.0743C37.5207 23.9785 37.5052 23.881 37.4635 23.7938C37.4219 23.7066 37.3558 23.6333 37.2734 23.5829C37.1909 23.5324 37.0956 23.5068 36.999 23.5093C36.9046 23.5118 36.8127 23.5409 36.7342 23.5933L24.9253 31.4628L20.4643 29.936C20.4643 29.936 20.0213 29.6896 20.0001 29.5179C19.9989 29.5084 19.9937 29.517 20.0167 29.4828C20.0397 29.4485 20.0976 29.3907 20.1701 29.3401C20.3152 29.2391 20.4809 29.178 20.4809 29.178L20.4975 29.1721L20.5141 29.1653C20.5141 29.1653 25.073 27.2104 29.7118 25.2237C32.0312 24.2304 34.3707 23.2293 36.1703 22.4602C37.9694 21.6913 39.2694 21.1378 39.3795 21.0936C39.5048 21.0434 39.6294 21.023 39.7284 21.0184ZM34.3165 26.4067L28.1277 33.6852L28.1248 33.6881C28.1151 33.6997 28.106 33.7118 28.0974 33.7242C28.0876 33.7378 28.0784 33.7518 28.07 33.7662C28.0353 33.8252 28.013 33.8907 28.0046 33.9587C28.0046 33.96 28.0046 33.9613 28.0046 33.9626L27.1983 37.5867C27.1849 37.5475 27.1756 37.5332 27.1612 37.4871V37.4861C26.9051 36.6636 25.7377 32.7701 25.5761 32.2316L34.3165 26.4067ZM28.8264 34.8779L29.9385 35.7121L28.3046 37.2262L28.8264 34.8779Z" fill="#08050D" stroke="#08050D" stroke-width="0.5"/>
</svg>
