<svg width="60" height="60" viewBox="0 0 60 60" fill="none" xmlns="http://www.w3.org/2000/svg">
<rect width="60" height="60" rx="30" fill="white"/>
<path d="M35 38H25C22 38 20 36 20 33V27C20 24 22 22 25 22H35C38 22 40 24 40 27V33C40 36 38 38 35 38Z" stroke="#08050D" stroke-width="1.5" stroke-miterlimit="10" stroke-linecap="round" stroke-linejoin="round"/>
<path d="M29.4001 27.5001L31.9001 29.0001C32.8001 29.6001 32.8001 30.5001 31.9001 31.1001L29.4001 32.6001C28.4001 33.2001 27.6001 32.7001 27.6001 31.6001V28.6001C27.6001 27.3001 28.4001 26.9001 29.4001 27.5001Z" stroke="#08050D" stroke-width="1.5" stroke-miterlimit="10" stroke-linecap="round" stroke-linejoin="round"/>
</svg>
