<svg width="60" height="60" viewBox="0 0 60 60" fill="none" xmlns="http://www.w3.org/2000/svg">
<rect width="60" height="60" rx="30" fill="white"/>
<path d="M23.9959 24.0015L21.3088 24.0029C21.3088 24.0029 21.155 23.9937 20.9693 24.0194C20.7836 24.0452 20.5093 24.0571 20.2279 24.3944L20.2266 24.3958L20.2253 24.3971C19.9751 24.7004 19.9847 25.0534 20.0159 25.2476C20.0471 25.4412 20.1174 25.5868 20.1174 25.5868V25.5881C20.1432 25.6553 22.0943 30.7218 24.5539 33.4439C26.2888 35.3653 28.1443 35.9996 29.7968 35.9996H30.654C30.936 35.9996 31.1878 35.986 31.4669 35.8328C31.7459 35.6796 31.9858 35.2568 31.9858 34.9285C31.9858 34.5748 31.994 34.2319 32.0366 34.0408C32.0763 33.8623 32.061 33.9061 32.0769 33.9057C32.0928 33.9094 32.1219 33.9165 32.177 33.9429C32.2958 33.9999 32.4794 34.1269 32.683 34.2945C33.0895 34.629 33.5711 35.1143 34.1111 35.4896C34.8845 36.0329 35.7239 35.9996 35.7239 35.9996H38.4917L38.5216 35.9968C38.5216 35.9968 38.9463 35.9866 39.3826 35.7032C39.6008 35.5615 39.8601 35.3016 39.9471 34.912C40.0342 34.5224 39.923 34.1136 39.7091 33.7541C39.631 33.6222 39.2516 33.0395 37.7373 31.6147C37.3461 31.247 37.0793 30.9867 36.9738 30.8483C36.9364 30.7992 36.9332 30.8039 36.9257 30.8014C36.9345 30.7773 37.022 30.5821 37.2561 30.2597C37.5 29.9238 37.8707 29.4557 38.3473 28.8123C38.9548 27.9921 39.381 27.2034 39.6493 26.5379C39.7834 26.2051 39.8784 25.9032 39.9354 25.6295C39.9924 25.3558 40.0378 25.1283 39.9536 24.8038C39.8908 24.5622 39.7202 24.3459 39.553 24.2317C39.3858 24.1175 39.2299 24.0745 39.09 24.047C38.8101 23.992 38.5632 24.0015 38.333 24.0015C37.851 24.0015 35.7083 24.0194 35.5314 24.0194C35.3238 24.0194 34.9927 24.1111 34.8395 24.2042C34.459 24.4351 34.34 24.7514 34.34 24.7514L34.3036 24.819L34.2828 24.8948C34.2828 24.8948 33.7949 26.5676 33.293 27.4297H33.2917C32.7015 28.4454 32.2613 28.8483 32.0678 28.9626C32.0472 28.9747 32.0586 28.9683 32.0444 28.9764C32.0292 28.9296 32.0101 28.8653 31.9975 28.7462C31.9692 28.4778 31.9858 28.0999 31.9858 27.7344C31.9858 26.722 32.0576 26.0907 31.978 25.493C31.9383 25.1942 31.837 24.8613 31.606 24.6053C31.3751 24.3492 31.0767 24.2232 30.7788 24.1504H30.7775C30.467 24.0746 30.1325 24.0095 29.3286 24.0015C28.3044 23.9914 27.6374 24.0251 27.0447 24.3048L27.0382 24.3089L27.033 24.3117C26.7988 24.4283 26.6141 24.5619 26.4516 24.7404C26.3703 24.8296 26.2738 24.8946 26.207 25.1787C26.1736 25.3208 26.17 25.5896 26.3215 25.8073C26.473 26.025 26.6853 26.0907 26.8105 26.1078C26.7874 26.1046 26.909 26.133 27.003 26.1822C27.097 26.2315 27.1787 26.3024 27.1994 26.3311V26.3325C27.1907 26.3205 27.281 26.5583 27.3048 26.775C27.3286 26.9917 27.3243 27.1665 27.3243 27.1665L27.323 27.2092L27.3269 27.2519C27.3269 27.2519 27.3678 27.7315 27.3464 28.2265C27.3357 28.474 27.3062 28.7231 27.2671 28.8757C27.265 28.8838 27.2641 28.881 27.2619 28.8882C27.0951 28.7647 26.7107 28.3347 26.181 27.4077C25.6914 26.5501 25.2329 25.0078 25.2329 25.0078L25.2224 24.9733L25.2107 24.9403C25.2107 24.9403 25.1252 24.5957 24.7477 24.3144C24.3938 24.0504 24.0571 24.0139 24.0571 24.0139L23.9959 24.0015ZM23.8412 25.4131C23.8792 25.4278 23.9589 25.4582 23.9738 25.4654L23.9582 25.4158L23.979 25.4668L23.9816 25.4682V25.4696H23.9829C23.9495 25.4448 23.9778 25.4694 23.9816 25.4751C24 25.5416 24.4066 27.026 25.0417 28.1383C25.6201 29.1508 26.0475 29.718 26.514 30.0571C26.98 30.3958 27.6067 30.3609 27.9252 30.1853C28.3509 29.951 28.4699 29.5659 28.5521 29.2452C28.6344 28.9244 28.6637 28.599 28.677 28.2913C28.7023 27.7041 28.659 27.2237 28.6549 27.1761C28.6555 27.1496 28.6615 26.9202 28.6276 26.6109C28.5934 26.2994 28.5321 25.9122 28.2712 25.5233C28.5634 25.4773 28.7257 25.4072 29.3156 25.4131C30.0679 25.4206 30.1823 25.4538 30.4784 25.5261C30.6396 25.5655 30.6575 25.5982 30.6423 25.5812C30.627 25.5643 30.6409 25.553 30.6592 25.6901C30.6957 25.9643 30.654 26.6676 30.654 27.7344C30.654 28.0351 30.6266 28.4592 30.6735 28.9033C30.7204 29.3472 30.8512 29.9151 31.3576 30.2473C31.6461 30.4366 32.1973 30.5016 32.7168 30.1949C33.2363 29.8882 33.7694 29.2998 34.4259 28.17C35.0743 27.056 35.4621 25.5913 35.5041 25.4365C35.5041 25.4365 35.5115 25.4314 35.5158 25.4282C35.5276 25.4288 35.5126 25.431 35.5314 25.431C35.7781 25.431 37.8827 25.4131 38.333 25.4131C38.4569 25.4131 38.5113 25.4201 38.6035 25.4241C38.5663 25.5765 38.5161 25.7539 38.4241 25.9824C38.2076 26.5193 37.8362 27.2158 37.299 27.9412C36.836 28.5661 36.4763 29.0194 36.2012 29.3982C35.9262 29.777 35.7101 30.0758 35.6199 30.5078C35.5296 30.9399 35.7018 31.4272 35.9372 31.736C36.1726 32.0449 36.4639 32.3051 36.8529 32.6706C38.318 34.0492 38.5584 34.4664 38.5814 34.5054V34.5067C38.6062 34.5483 38.5901 34.5065 38.5996 34.5274C38.5166 34.5549 38.4177 34.5859 38.4084 34.5881H35.7135H35.7096C35.7096 34.5881 35.2139 34.5708 34.846 34.3124L34.8447 34.311H34.8434C34.4541 34.0408 33.9836 33.5774 33.4998 33.1793C33.2579 32.9802 33.0116 32.7937 32.7259 32.6568C32.4402 32.52 32.0782 32.4229 31.6971 32.5438C31.1455 32.7188 30.8394 33.2751 30.7411 33.7169C30.6705 34.034 30.681 34.3098 30.6787 34.5867C30.6597 34.5877 30.6761 34.5881 30.654 34.5881H29.7968C28.4433 34.5881 27.0352 34.1502 25.5164 32.468C23.5418 30.2826 21.78 26.0564 21.5156 25.4144L23.8412 25.4131ZM35.4573 25.4186C35.4452 25.4214 35.4798 25.4242 35.508 25.4268C35.5042 25.429 35.5083 25.4249 35.5028 25.4282C35.5022 25.4164 35.4735 25.4147 35.4573 25.4186Z" fill="#08050D"/>
</svg>
