<svg width="199" height="60" viewBox="0 0 199 60" fill="none" xmlns="http://www.w3.org/2000/svg">
<rect width="199" height="60" rx="30" fill="white"/>
<g style="mix-blend-mode:multiply">
<path d="M54.8988 38.4532C59.5719 38.4532 63.3602 34.6685 63.3602 29.9999C63.3602 25.3313 59.5719 21.5466 54.8988 21.5466C50.2257 21.5466 46.4374 25.3313 46.4374 29.9999C46.4374 34.6685 50.2257 38.4532 54.8988 38.4532Z" fill="#9488EC"/>
</g>
<path d="M49.5525 48C47.2372 48 45.0482 46.9486 43.5749 45.1402C43.4907 45.0981 43.4486 45.014 43.4065 44.9299C41.9331 42.9112 40.0387 41.229 37.8497 39.9673C35.7028 38.7056 33.3875 37.9486 30.9459 37.6542C30.8617 37.6542 30.7775 37.6122 30.6933 37.6122C26.8626 37.1075 24 33.8692 24 30C24 26.257 26.7784 23.0187 30.4829 22.4299C30.567 22.3878 30.6512 22.3879 30.7775 22.3458C33.2612 22.0935 35.6607 21.2944 37.8497 20.0327C39.9967 18.8131 41.8489 17.1729 43.2802 15.1963C43.3223 15.1542 43.3644 15.1121 43.4065 15.0701C44.8798 13.1355 47.1531 12 49.5525 12C53.8043 12 57.2562 15.4486 57.2562 19.6963C57.2562 20.7477 57.0457 21.757 56.6248 22.7243C56.2038 23.6495 55.6565 24.3224 55.1514 24.9953C54.1411 26.257 53.2991 27.3505 53.2991 29.9579C53.2991 32.5234 54.1411 33.5748 55.1093 34.8364C55.6565 35.5093 56.2038 36.1822 56.5827 37.1075C56.5827 37.1495 56.6248 37.1916 56.6248 37.2336C57.0457 38.2009 57.2562 39.2523 57.2562 40.2617C57.2983 44.5514 53.8043 48 49.5525 48ZM45.2166 43.3318C45.2587 43.3738 45.3008 43.4159 45.3429 43.5C46.3532 44.8458 47.9108 45.6028 49.5525 45.6028C52.4572 45.6028 54.8567 43.2477 54.8567 40.3037C54.8567 39.5467 54.6883 38.8318 54.3936 38.1168C54.3936 38.0748 54.3515 38.0327 54.3515 37.9907C54.099 37.4019 53.678 36.9393 53.257 36.3505C52.2046 35.0467 50.8996 33.4065 50.8996 29.9579C50.8996 26.5093 52.2046 24.8271 53.2991 23.4813C53.7622 22.8925 54.1832 22.3458 54.4778 21.757C54.7725 21.0841 54.8988 20.4112 54.8988 19.6963C54.8988 16.7944 52.5414 14.3972 49.5946 14.3972C47.8687 14.3972 46.3111 15.1963 45.3008 16.6262C45.2587 16.6682 45.2166 16.7103 45.1745 16.7944C43.5328 18.9813 41.47 20.7897 39.1126 22.1355C36.671 23.5234 34.0611 24.4065 31.3248 24.743C31.2406 24.785 31.1564 24.785 31.1143 24.785C28.4622 25.1215 26.4837 27.3505 26.4837 30C26.4837 32.6916 28.5464 34.9626 31.2406 35.215C31.3248 35.215 31.409 35.257 31.5353 35.257C34.2294 35.5935 36.7552 36.4766 39.1126 37.8224C41.5121 39.2523 43.5749 41.1028 45.2166 43.3318Z" fill="#D93497"/>
<path d="M30.7354 37.2758C29.9356 37.2758 29.0936 37.1075 28.1254 36.8131L28.9253 34.5421C32.8823 35.93 34.5662 32.986 37.3866 26.0468C38.8179 22.5141 40.4597 18.6029 42.9434 15.6589L44.7956 17.215C42.5645 19.8645 41.0911 23.4393 39.6599 26.8879C37.555 32.0187 35.4081 37.2758 30.7354 37.2758Z" fill="#D93497"/>
<path d="M166.747 27.4684H168.968V28.3318H169.508C169.703 28.0294 169.975 27.7855 170.326 27.6001C170.686 27.4147 171.115 27.322 171.611 27.322C172.137 27.322 172.609 27.4245 173.028 27.6294C173.447 27.8245 173.802 28.0977 174.094 28.4489C174.387 28.8001 174.61 29.2147 174.766 29.6928C174.922 30.1708 175 30.683 175 31.2294C175 31.8245 174.917 32.3659 174.752 32.8538C174.586 33.3416 174.352 33.7562 174.051 34.0977C173.749 34.4294 173.388 34.6879 172.97 34.8733C172.561 35.0586 172.113 35.1513 171.626 35.1513C171.12 35.1513 170.686 35.0586 170.326 34.8733C169.975 34.6879 169.708 34.4391 169.523 34.1269H168.968V37.2001H166.747V27.4684ZM170.881 29.3562C170.589 29.3562 170.326 29.405 170.092 29.5025C169.859 29.6001 169.654 29.7318 169.479 29.8977C169.313 30.0635 169.187 30.2635 169.099 30.4977C169.011 30.722 168.968 30.9659 168.968 31.2294C168.968 31.4928 169.011 31.7416 169.099 31.9757C169.187 32.2099 169.313 32.4099 169.479 32.5757C169.654 32.7416 169.859 32.8733 170.092 32.9708C170.326 33.0684 170.589 33.1172 170.881 33.1172C171.173 33.1172 171.436 33.0684 171.67 32.9708C171.903 32.8733 172.103 32.7416 172.269 32.5757C172.434 32.4099 172.561 32.2099 172.648 31.9757C172.746 31.7416 172.794 31.4928 172.794 31.2294C172.794 30.9659 172.746 30.722 172.648 30.4977C172.561 30.2635 172.434 30.0635 172.269 29.8977C172.103 29.7318 171.903 29.6001 171.67 29.5025C171.436 29.405 171.173 29.3562 170.881 29.3562Z" fill="#08050D"/>
<path d="M157.832 27.4684H160.052V28.3318H160.593C160.788 28.0294 161.06 27.7855 161.411 27.6001C161.771 27.4147 162.2 27.322 162.696 27.322C163.222 27.322 163.694 27.4245 164.113 27.6294C164.532 27.8245 164.887 28.0977 165.179 28.4489C165.471 28.8001 165.695 29.2147 165.851 29.6928C166.007 30.1708 166.085 30.683 166.085 31.2294C166.085 31.8245 166.002 32.3659 165.837 32.8538C165.671 33.3416 165.437 33.7562 165.136 34.0977C164.834 34.4294 164.473 34.6879 164.055 34.8733C163.646 35.0586 163.198 35.1513 162.711 35.1513C162.204 35.1513 161.771 35.0586 161.411 34.8733C161.06 34.6879 160.793 34.4391 160.608 34.1269H160.052V37.2001H157.832V27.4684ZM161.966 29.3562C161.674 29.3562 161.411 29.405 161.177 29.5025C160.943 29.6001 160.739 29.7318 160.564 29.8977C160.398 30.0635 160.272 30.2635 160.184 30.4977C160.096 30.722 160.052 30.9659 160.052 31.2294C160.052 31.4928 160.096 31.7416 160.184 31.9757C160.272 32.2099 160.398 32.4099 160.564 32.5757C160.739 32.7416 160.943 32.8733 161.177 32.9708C161.411 33.0684 161.674 33.1172 161.966 33.1172C162.258 33.1172 162.521 33.0684 162.755 32.9708C162.988 32.8733 163.188 32.7416 163.354 32.5757C163.519 32.4099 163.646 32.2099 163.733 31.9757C163.831 31.7416 163.879 31.4928 163.879 31.2294C163.879 30.9659 163.831 30.722 163.733 30.4977C163.646 30.2635 163.519 30.0635 163.354 29.8977C163.188 29.7318 162.988 29.6001 162.755 29.5025C162.521 29.405 162.258 29.3562 161.966 29.3562Z" fill="#08050D"/>
<path d="M149.91 32.7659C149.91 32.005 150.159 31.4147 150.655 30.9952C151.152 30.5659 151.926 30.3513 152.978 30.3513H154.774V30.322C154.774 29.9025 154.652 29.6001 154.409 29.4147C154.175 29.2294 153.859 29.1367 153.46 29.1367C153.06 29.1367 152.759 29.2245 152.554 29.4001C152.35 29.5659 152.213 29.7757 152.145 30.0294H150.013C150.051 29.6391 150.149 29.2781 150.305 28.9464C150.46 28.6147 150.68 28.3318 150.962 28.0977C151.244 27.8538 151.595 27.6635 152.014 27.5269C152.442 27.3903 152.939 27.322 153.503 27.322C154.652 27.322 155.519 27.5952 156.103 28.1416C156.697 28.6781 156.994 29.4196 156.994 30.3659V35.005H154.774V34.3464H154.234C154.058 34.5513 153.825 34.7367 153.533 34.9025C153.241 35.0684 152.832 35.1513 152.306 35.1513C151.916 35.1513 151.571 35.0928 151.269 34.9757C150.967 34.8489 150.714 34.6781 150.509 34.4635C150.314 34.2489 150.163 33.9952 150.056 33.7025C149.959 33.4099 149.91 33.0977 149.91 32.7659ZM152.116 32.5464C152.116 32.8001 152.213 32.9952 152.408 33.1318C152.612 33.2586 152.9 33.322 153.27 33.322C153.542 33.322 153.8 33.2928 154.044 33.2342C154.297 33.1757 154.541 33.0733 154.774 32.9269V31.7855H153.255C152.895 31.7855 152.612 31.8489 152.408 31.9757C152.213 32.1025 152.116 32.2928 152.116 32.5464Z" fill="#08050D"/>
<path d="M138.014 31.2294C138.014 30.683 138.106 30.1708 138.291 29.6928C138.486 29.2147 138.759 28.8001 139.109 28.4489C139.46 28.0977 139.883 27.8245 140.38 27.6294C140.886 27.4245 141.456 27.322 142.089 27.322C142.722 27.322 143.287 27.4245 143.783 27.6294C144.29 27.8245 144.718 28.0977 145.069 28.4489C145.419 28.8001 145.687 29.2147 145.872 29.6928C146.057 30.1708 146.149 30.683 146.149 31.2294C146.149 31.7757 146.057 32.2879 145.872 32.7659C145.687 33.244 145.419 33.6586 145.069 34.0099C144.718 34.3611 144.29 34.6391 143.783 34.844C143.287 35.0489 142.722 35.1513 142.089 35.1513C141.456 35.1513 140.886 35.0489 140.38 34.844C139.883 34.6391 139.46 34.3611 139.109 34.0099C138.759 33.6586 138.486 33.244 138.291 32.7659C138.106 32.2879 138.014 31.7757 138.014 31.2294ZM140.219 31.2294C140.219 31.7659 140.39 32.2147 140.73 32.5757C141.071 32.9367 141.524 33.1172 142.089 33.1172C142.371 33.1172 142.624 33.0684 142.848 32.9708C143.072 32.8733 143.267 32.7416 143.433 32.5757C143.598 32.4099 143.725 32.2099 143.812 31.9757C143.9 31.7416 143.944 31.4928 143.944 31.2294C143.944 30.9659 143.9 30.722 143.812 30.4977C143.725 30.2635 143.598 30.0635 143.433 29.8977C143.267 29.7318 143.072 29.6001 142.848 29.5025C142.624 29.405 142.371 29.3562 142.089 29.3562C141.806 29.3562 141.548 29.405 141.315 29.5025C141.091 29.6001 140.896 29.7318 140.73 29.8977C140.565 30.0635 140.438 30.2635 140.351 30.4977C140.263 30.722 140.219 30.9659 140.219 31.2294Z" fill="#08050D"/>
<path d="M132.506 27.4684H133.675C133.694 27.0098 133.762 26.6147 133.879 26.283C134.006 25.9416 134.191 25.6635 134.434 25.4489C134.688 25.2245 135.009 25.0586 135.398 24.9513C135.798 24.844 136.275 24.7903 136.83 24.7903H137.779V26.4586H136.903C136.533 26.4586 136.275 26.5416 136.129 26.7074C135.983 26.8635 135.9 27.1172 135.88 27.4684H137.779V29.5025H135.88V35.005H133.675V29.5025H132.506V27.4684Z" fill="#08050D"/>
<path d="M124.854 35.005V27.4684H127.074V28.1123H127.614C127.809 27.8781 128.038 27.6879 128.301 27.5416C128.573 27.3952 128.953 27.322 129.44 27.322C130.287 27.322 130.93 27.5855 131.368 28.1123C131.806 28.6294 132.025 29.3611 132.025 30.3074V35.005H129.82V30.7903C129.82 30.3123 129.713 29.9562 129.499 29.722C129.284 29.4781 128.943 29.3562 128.476 29.3562C128.135 29.3562 127.853 29.4001 127.629 29.4879C127.415 29.5659 127.23 29.6635 127.074 29.7806V35.005H124.854Z" fill="#08050D"/>
<path d="M123.95 35.005H121.73V27.4684H123.95V35.005ZM121.628 25.7708C121.628 25.4294 121.74 25.1513 121.964 24.9367C122.197 24.7123 122.494 24.6001 122.855 24.6001C123.215 24.6001 123.507 24.7123 123.731 24.9367C123.955 25.1513 124.067 25.4294 124.067 25.7708C124.067 26.0928 123.955 26.366 123.731 26.5903C123.507 26.805 123.215 26.9123 122.855 26.9123C122.494 26.9123 122.197 26.805 121.964 26.5903C121.74 26.366 121.628 26.0928 121.628 25.7708Z" fill="#08050D"/>
<path d="M117.949 33.966C117.949 33.6538 118.061 33.3757 118.285 33.1318C118.519 32.8879 118.821 32.766 119.191 32.766C119.57 32.766 119.872 32.8879 120.096 33.1318C120.33 33.3757 120.447 33.6538 120.447 33.966C120.447 34.2781 120.33 34.5562 120.096 34.8001C119.872 35.0342 119.57 35.1513 119.191 35.1513C119.006 35.1513 118.835 35.1172 118.679 35.0489C118.533 34.9806 118.402 34.8928 118.285 34.7855C118.178 34.6781 118.095 34.5562 118.037 34.4196C117.978 34.2733 117.949 34.1221 117.949 33.966Z" fill="#08050D"/>
<path d="M109.471 31.2294C109.471 30.683 109.564 30.1708 109.749 29.6928C109.943 29.2147 110.216 28.8001 110.567 28.4489C110.917 28.0977 111.341 27.8245 111.837 27.6294C112.344 27.4245 112.913 27.322 113.546 27.322C114.179 27.322 114.744 27.4245 115.241 27.6294C115.747 27.8245 116.176 28.0977 116.526 28.4489C116.877 28.8001 117.144 29.2147 117.329 29.6928C117.514 30.1708 117.607 30.683 117.607 31.2294C117.607 31.7757 117.514 32.2879 117.329 32.7659C117.144 33.244 116.877 33.6586 116.526 34.0099C116.176 34.3611 115.747 34.6391 115.241 34.844C114.744 35.0489 114.179 35.1513 113.546 35.1513C112.913 35.1513 112.344 35.0489 111.837 34.844C111.341 34.6391 110.917 34.3611 110.567 34.0099C110.216 33.6586 109.943 33.244 109.749 32.7659C109.564 32.2879 109.471 31.7757 109.471 31.2294ZM111.677 31.2294C111.677 31.7659 111.847 32.2147 112.188 32.5757C112.529 32.9367 112.982 33.1172 113.546 33.1172C113.829 33.1172 114.082 33.0684 114.306 32.9708C114.53 32.8733 114.725 32.7416 114.89 32.5757C115.056 32.4099 115.182 32.2099 115.27 31.9757C115.358 31.7416 115.401 31.4928 115.401 31.2294C115.401 30.9659 115.358 30.722 115.27 30.4977C115.182 30.2635 115.056 30.0635 114.89 29.8977C114.725 29.7318 114.53 29.6001 114.306 29.5025C114.082 29.405 113.829 29.3562 113.546 29.3562C113.264 29.3562 113.006 29.405 112.772 29.5025C112.548 29.6001 112.354 29.7318 112.188 29.8977C112.022 30.0635 111.896 30.2635 111.808 30.4977C111.721 30.722 111.677 30.9659 111.677 31.2294Z" fill="#08050D"/>
<path d="M97.2812 35.005V27.4684H99.5013V28.1269H100.042C100.207 27.9025 100.422 27.7123 100.684 27.5562C100.947 27.4001 101.308 27.322 101.765 27.322C102.204 27.322 102.578 27.4001 102.89 27.5562C103.202 27.7025 103.455 27.9172 103.65 28.2001H104.205C104.399 27.9464 104.648 27.7367 104.95 27.5708C105.261 27.405 105.656 27.322 106.133 27.322C107.019 27.322 107.7 27.5757 108.178 28.083C108.655 28.5806 108.893 29.322 108.893 30.3074V35.005H106.688V30.7464C106.688 30.3074 106.585 29.9708 106.381 29.7367C106.186 29.4928 105.855 29.3708 105.388 29.3708C105.135 29.3708 104.911 29.4098 104.716 29.4879C104.521 29.5562 104.341 29.644 104.175 29.7513C104.185 29.8294 104.19 29.9123 104.19 30.0001C104.19 30.0781 104.19 30.1562 104.19 30.2342V35.005H101.984V30.7464C101.984 30.3074 101.887 29.9708 101.692 29.7367C101.507 29.4928 101.201 29.3708 100.772 29.3708C100.46 29.3708 100.207 29.4147 100.013 29.5025C99.8178 29.5806 99.6474 29.6733 99.5013 29.7806V35.005H97.2812Z" fill="#08050D"/>
<path d="M91.1945 27.4684L92.7136 32.5025H92.9473L94.5248 27.4684H96.8764L94.4663 35.005H91.1069L88.6968 27.4684H91.1945Z" fill="#08050D"/>
<path d="M84.8317 35.1513C84.228 35.1513 83.6778 35.0489 83.1812 34.844C82.6846 34.6391 82.261 34.3611 81.9104 34.0099C81.5599 33.6586 81.2872 33.244 81.0924 32.7659C80.8977 32.2879 80.8003 31.7757 80.8003 31.2294C80.8003 30.683 80.8977 30.1708 81.0924 29.6928C81.2872 29.2147 81.5599 28.8001 81.9104 28.4489C82.261 28.0977 82.6846 27.8245 83.1812 27.6294C83.6778 27.4245 84.228 27.322 84.8317 27.322C85.4646 27.322 86.0246 27.4245 86.5114 27.6294C87.0081 27.8245 87.4268 28.0977 87.7676 28.4489C88.1181 28.8001 88.3811 29.2098 88.5563 29.6781C88.7414 30.1367 88.8339 30.6294 88.8339 31.1562C88.8339 31.2733 88.829 31.3806 88.8193 31.4781C88.8193 31.5757 88.8144 31.6635 88.8047 31.7416H82.9329C83.001 32.2489 83.1958 32.644 83.5171 32.9269C83.8385 33.2001 84.2767 33.3367 84.8317 33.3367C85.2504 33.3367 85.601 33.2684 85.8834 33.1318C86.1755 32.9855 86.3849 32.7757 86.5114 32.5025H88.7316C88.6245 32.883 88.459 33.2391 88.235 33.5708C88.011 33.8928 87.7335 34.1708 87.4024 34.405C87.0811 34.6391 86.7013 34.8245 86.2631 34.9611C85.8347 35.0879 85.3575 35.1513 84.8317 35.1513ZM86.5991 30.322C86.4822 29.9806 86.2777 29.6977 85.9856 29.4733C85.6935 29.2489 85.3088 29.1367 84.8317 29.1367C84.3643 29.1367 83.9748 29.2489 83.6632 29.4733C83.3516 29.6879 83.1374 29.9708 83.0205 30.322H86.5991Z" fill="#08050D"/>
<path d="M72.5357 35.005V24.9074H76.3334C76.9761 24.9074 77.5457 24.9903 78.0423 25.1562C78.539 25.322 78.9577 25.5562 79.2985 25.8586C79.6393 26.1611 79.8974 26.522 80.0726 26.9416C80.2576 27.3611 80.3502 27.8294 80.3502 28.3464C80.3502 28.9318 80.209 29.4733 79.9266 29.9708C79.6442 30.4586 79.2206 30.8489 78.6558 31.1416L80.8468 35.005H78.1008L76.2896 31.844H74.8581V35.005H72.5357ZM76.3188 29.8099C76.903 29.8099 77.3364 29.6733 77.6187 29.4001C77.9109 29.1172 78.0569 28.766 78.0569 28.3464C78.0569 27.9269 77.9109 27.5903 77.6187 27.3367C77.3364 27.0733 76.903 26.9416 76.3188 26.9416H74.7997V29.8099H76.3188Z" fill="#08050D"/>
</svg>
